<svg xmlns="http://www.w3.org/2000/svg" width="343" height="50" viewBox="0 0 343 50"><defs><style>.a{fill:#ed2529;}.b,.c{fill:#fff;}.b{font-size:16px;font-family:OpenSans-Semibold, Open Sans;font-weight:600;}</style></defs><path class="a" d="M25,0H318a25,25,0,0,1,0,50H25A25,25,0,0,1,25,0Z"/><text class="b" transform="translate(172 31)"><tspan x="-40.035" y="0">FINALIZAR</tspan></text><g transform="translate(-80.5 -358.5)"><circle class="c" cx="9.5" cy="9.5" r="9.5" transform="translate(374.5 374.5)"/><path class="a" d="M382,388.25a1,1,0,0,1-.707-.293l-2.5-2.5a1,1,0,0,1,1.414-1.414L382,385.836l5.793-5.793a1,1,0,0,1,1.414,1.414l-6.5,6.5A1,1,0,0,1,382,388.25Z"/></g></svg>