<svg xmlns="http://www.w3.org/2000/svg" width="38.34" height="38.34" viewBox="0 0 38.34 38.34"><defs><style>.a{fill:#7954fc;}</style></defs><g transform="translate(-707 -485)"><g transform="translate(707 485)"><path class="a" d="M1158.12,525.371a18.806,18.806,0,1,1,9.387-35.106.806.806,0,0,1-.405,1.5.8.8,0,0,1-.4-.108,17.2,17.2,0,1,0,8.613,14.9,17.4,17.4,0,0,0-.152-2.3,17.092,17.092,0,0,0-.992-3.885,17.411,17.411,0,0,0-1.146-2.4.807.807,0,0,1,.7-1.209.813.813,0,0,1,.7.4,18.721,18.721,0,0,1,2.34,6.875,18.82,18.82,0,0,1-18.64,21.318Z" transform="translate(-1138.95 -487.394)"/><path class="a" d="M1157.984,525.6a19.17,19.17,0,1,1,9.569-35.783,1.17,1.17,0,0,1,.428,1.6,1.206,1.206,0,0,1-1.6.429,16.794,16.794,0,1,0,7.311,8.535,17.039,17.039,0,0,0-1.122-2.348,1.17,1.17,0,0,1,.429-1.6,1.2,1.2,0,0,1,1.6.429,19.043,19.043,0,0,1,2.386,7.009,19.4,19.4,0,0,1,.17,2.56A19.191,19.191,0,0,1,1157.984,525.6Zm0-37.612a18.457,18.457,0,1,0,15.985,9.238.451.451,0,0,0-.6-.162.442.442,0,0,0-.163.6,17.745,17.745,0,0,1,1.172,2.449,17.494,17.494,0,0,1,1.013,3.968,17.858,17.858,0,0,1,.155,2.346,17.55,17.55,0,1,1-8.8-15.218.459.459,0,0,0,.6-.163.442.442,0,0,0-.162-.6A18.433,18.433,0,0,0,1157.984,487.986Z" transform="translate(-1138.814 -487.258)"/></g><g transform="translate(-275.563 -10.862)"><path class="a" d="M1010.1,507.612H994.375a2.066,2.066,0,0,0-2.063,2.063v10.707a2.065,2.065,0,0,0,2.063,2.063H1010.1a2.065,2.065,0,0,0,2.063-2.063V509.675A2.066,2.066,0,0,0,1010.1,507.612Zm-15.729.967H1010.1a1.1,1.1,0,0,1,.923.51l-7.934,6.95-.023.022a1.175,1.175,0,0,1-1.661,0l-.023-.022-7.934-6.95A1.094,1.094,0,0,1,994.375,508.579Zm15.729,12.9H994.375a1.1,1.1,0,0,1-1.1-1.1v-10.16l7.459,6.534a2.143,2.143,0,0,0,3,0l7.458-6.533v10.159A1.1,1.1,0,0,1,1010.1,521.479Z" transform="translate(-0.264 -0.265)"/><path class="a" d="M1009.84,522.666H994.111a2.551,2.551,0,0,1-2.548-2.548V509.411a2.552,2.552,0,0,1,2.548-2.549h15.729a2.552,2.552,0,0,1,2.548,2.549v10.707A2.551,2.551,0,0,1,1009.84,522.666ZM993.5,511.028v9.09a.611.611,0,0,0,.611.611h15.729a.612.612,0,0,0,.611-.611v-9.089l-6.654,5.828a2.628,2.628,0,0,1-3.664-.02Zm.428-2.2,7.513,6.581a.686.686,0,0,0,1.021.045l7.56-6.625a.618.618,0,0,0-.183-.029H994.111A.614.614,0,0,0,993.928,508.828Z" transform="translate(0)"/></g></g></svg>