<svg xmlns="http://www.w3.org/2000/svg" xmlns:xlink="http://www.w3.org/1999/xlink" width="385" height="280" viewBox="0 0 385 280"><defs><style>.a{fill:none;}.b{clip-path:url(#a);}.c{fill:#511aea;}.d,.e{fill:#230962;}.d{opacity:0.9;}.f{fill:#fff;}.g{fill:#dadada;}.h{fill:url(#b);}.i{fill:url(#c);}.j{fill:#ed2529;}</style><clipPath id="a"><rect class="a" width="385" height="280" transform="translate(0 -0.146)"/></clipPath><linearGradient id="b" y1="0.5" x2="1" y2="0.5" gradientUnits="objectBoundingBox"><stop offset="0.001" stop-color="#048ff7"/><stop offset="0.074" stop-color="#049ff6"/><stop offset="0.243" stop-color="#05c0f4"/><stop offset="0.417" stop-color="#06d9f3"/><stop offset="0.596" stop-color="#06ebf2"/><stop offset="0.786" stop-color="#06f6f2"/><stop offset="1" stop-color="#07faf2"/></linearGradient><linearGradient id="c" y1="0.5" x2="1" y2="0.5" gradientUnits="objectBoundingBox"><stop offset="0" stop-color="#07faf2"/><stop offset="0.271" stop-color="#06f7f2"/><stop offset="0.454" stop-color="#06eef2"/><stop offset="0.611" stop-color="#06dff3"/><stop offset="0.753" stop-color="#05c9f4"/><stop offset="0.884" stop-color="#04aef5"/><stop offset="1" stop-color="#048ff7"/></linearGradient></defs><g transform="translate(-139 8.146)"><g class="b" transform="translate(139 -8)"><g transform="translate(7.694 31.203)"><ellipse class="c" cx="157.715" cy="58.233" rx="157.715" ry="58.233" transform="translate(0 175.804)"/><path class="d" d="M170.58,224.64c-4.145-2.393-4.145-6.273,0-8.665l57.868-33.411c5.922-3.418,15.52-3.418,21.442,0l121.28,70.021c4.144,2.393,4.144,6.272,0,8.665L320.8,290.328c-4.145,2.393-10.985,6.328-15.75,6.78a22.971,22.971,0,0,1-13.195-2.448Z" transform="translate(-148.156 -32.856)"/><g transform="translate(24.173 89.432)"><path class="e" d="M250.765,127.8l-66.709,38.514-11.465-2.774v14.308a5.168,5.168,0,0,0,2.337,4.049l133.286,75.684c6.456,3.727,16.922,3.727,23.378,0L395.739,220.7a5.166,5.166,0,0,0,2.338-4.049V203.695l-25.013-5.284Z" transform="translate(-172.592 -119.608)"/><path class="c" d="M250.765,127.8l-66.709,38.514-11.465-2.774v10.524a5.165,5.165,0,0,0,2.337,4.049L308.215,253.8c6.456,3.727,16.922,3.727,23.378,0l64.146-36.881a5.169,5.169,0,0,0,2.338-4.05v-9.174l-25.013-5.284Z" transform="translate(-172.592 -119.608)"/><path class="f" d="M175.981,167.836c-4.518-2.609-4.518-6.839,0-9.448l63.1-36.428c6.455-3.727,16.921-3.727,23.377,0L394.688,198.3c4.519,2.609,4.519,6.839,0,9.448l-54.914,31.7c-4.518,2.61-11.978,6.9-17.172,7.392-5.078.483-10.47-.406-14.387-2.668Z" transform="translate(-172.592 -119.164)"/><path class="c" d="M234.126,135.9c.441.508.179,1.278-.584,1.719l-20.63,11.911a1.816,1.816,0,0,1-2.18-.123h0c-.44-.509-.178-1.279.584-1.719l20.631-11.911a1.813,1.813,0,0,1,2.179.123Z" transform="translate(-174.539 -120.002)"/><path class="g" d="M186.266,169.044l73.982-43.049,122.079,69.864-74.808,43.191Z" transform="translate(-173.294 -119.515)"/><path class="h" d="M187.685,169.084l72.639-42.268L381.046,195.9l-73.454,42.409Z" transform="translate(-173.367 -119.557)"/><path class="i" d="M264.195,126.816,384.917,195.9l-73.455,42.408C323.457,203.065,253.51,172.594,264.195,126.816Z" transform="translate(-177.238 -119.557)"/></g><g transform="translate(122.719)"><path class="j" d="M421.17,24.892H289.564a9.311,9.311,0,0,0-9.311,9.31v71.977a9.31,9.31,0,0,0,9.311,9.31h9.573L317,160.976l25.04-45.487H421.17a9.31,9.31,0,0,0,9.311-9.31V34.2A9.311,9.311,0,0,0,421.17,24.892Z" transform="translate(-276.665 -24.892)"/><path class="c" d="M417.389,24.892H285.781a9.31,9.31,0,0,0-9.31,9.31v71.977a9.31,9.31,0,0,0,9.31,9.31h9.574l21.452,45.487,21.452-45.487h79.129a9.31,9.31,0,0,0,9.31-9.31V34.2A9.31,9.31,0,0,0,417.389,24.892Z" transform="translate(-276.471 -24.892)"/></g></g></g></g></svg>