<svg xmlns="http://www.w3.org/2000/svg" xmlns:xlink="http://www.w3.org/1999/xlink" width="51.37" height="51.371" viewBox="0 0 51.37 51.371"><defs><style>.a{fill:url(#a);}.b,.c,.d{fill:none;}.b,.c,.d,.e,.f{stroke:#fff;}.b,.d,.e{stroke-linecap:round;}.b,.c,.d,.e{stroke-linejoin:round;}.b,.c,.e{stroke-width:2px;}.c{stroke-linecap:square;}.d{stroke-width:3px;}.e,.f{fill:#fff;}.f{stroke-miterlimit:10;}</style><linearGradient id="a" x1="1" y1="1" x2="-0.111" gradientUnits="objectBoundingBox"><stop offset="0" stop-color="#00d4d2"/><stop offset="0.216" stop-color="#00cdd6"/><stop offset="0.518" stop-color="#00bbe2"/><stop offset="0.867" stop-color="#009ef6"/><stop offset="1" stop-color="#0091ff"/></linearGradient></defs><g transform="translate(-778 -991)"><g transform="translate(778 991)"><path class="a" d="M-853.879,891.729a25.686,25.686,0,0,1-25.685,25.687,25.686,25.686,0,0,1-25.685-25.687,25.684,25.684,0,0,1,25.685-25.684A25.684,25.684,0,0,1-853.879,891.729Z" transform="translate(905.249 -866.045)"/></g><g transform="translate(790.776 1001.704)"><g transform="translate(0)"><line class="b" y1="3.231" transform="translate(12.926)"/><line class="c" x2="5.3" transform="translate(10.276)"/><path class="d" d="M-503.055,889.454a12.925,12.925,0,0,0-12.925-12.925,12.925,12.925,0,0,0-12.926,12.925,12.924,12.924,0,0,0,12.926,12.923A12.924,12.924,0,0,0-503.055,889.454Z" transform="translate(528.906 -873.298)"/><circle class="e" cx="1.034" cy="1.034" r="1.034" transform="translate(11.892 15.122)"/><g transform="translate(11.891 6.98)"><rect class="f" width="2.069" height="9.175"/></g></g></g></g></svg>