<svg xmlns="http://www.w3.org/2000/svg" xmlns:xlink="http://www.w3.org/1999/xlink" width="51.37" height="51.371" viewBox="0 0 51.37 51.371"><defs><style>.a{fill:url(#a);}.b{fill:#fff;}</style><linearGradient id="a" x1="0.217" y1="0.109" x2="0.838" y2="0.864" gradientUnits="objectBoundingBox"><stop offset="0" stop-color="#b509dd"/><stop offset="1" stop-color="#f7276c"/></linearGradient></defs><g transform="translate(-364 -359)"><g transform="translate(-414 -632)"><g transform="translate(778 991)"><path class="a" d="M-853.879,891.729a25.686,25.686,0,0,1-25.685,25.687,25.686,25.686,0,0,1-25.685-25.687,25.684,25.684,0,0,1,25.685-25.684A25.684,25.684,0,0,1-853.879,891.729Z" transform="translate(905.249 -866.045)"/></g></g><g transform="translate(-168.767 -691.748)"><path class="b" d="M574.416,1079.22v11.469a1.223,1.223,0,0,1-1.245,1.179H543.015a1.215,1.215,0,0,1-1.245-1.179V1079.22Z" transform="translate(-0.001 -5.006)"/><path class="b" d="M573.168,1066.749H543.011a1.213,1.213,0,0,0-1.244,1.176v2.694h32.647v-2.694A1.214,1.214,0,0,0,573.168,1066.749Z"/></g></g></svg>