<svg xmlns="http://www.w3.org/2000/svg" xmlns:xlink="http://www.w3.org/1999/xlink" width="385.366" height="280" viewBox="0 0 385.366 280"><defs><style>.a{fill:none;}.b{clip-path:url(#a);}.c{fill:#7954fc;}.d{fill:#353077;opacity:0.9;}.e{fill:#230962;}.f{fill:#511aea;}.g{fill:#fff;}.h{fill:#dadada;}.i{fill:url(#b);}.j{fill:url(#c);}.k{fill:#7707ad;}</style><clipPath id="a"><rect class="a" width="385.366" height="280"/></clipPath><linearGradient id="b" y1="0.5" x2="1" y2="0.5" gradientUnits="objectBoundingBox"><stop offset="0" stop-color="#a703f6"/><stop offset="0.469" stop-color="#d015ae"/><stop offset="0.824" stop-color="#ec227e"/><stop offset="1" stop-color="#f7276c"/></linearGradient><linearGradient id="c" y1="0.5" x2="1" y2="0.5" gradientUnits="objectBoundingBox"><stop offset="0" stop-color="#f7276c"/><stop offset="0.151" stop-color="#f42570"/><stop offset="0.318" stop-color="#ec227d"/><stop offset="0.493" stop-color="#df1c93"/><stop offset="0.672" stop-color="#ce14b2"/><stop offset="0.854" stop-color="#b70ada"/><stop offset="0.966" stop-color="#a703f6"/></linearGradient></defs><g transform="translate(-1480.333 37.853)"><g class="b" transform="translate(1480.333 -37.853)"><g transform="translate(7.698 31.219)"><ellipse class="c" cx="157.797" cy="58.263" rx="157.797" ry="58.263" transform="translate(0 175.897)"/><path class="d" d="M1511.914,194.81c-4.147-2.394-4.147-6.276,0-8.67l57.9-33.428c5.924-3.42,15.528-3.42,21.452,0l121.344,70.058c4.147,2.394,4.147,6.276,0,8.67l-50.391,29.093c-4.147,2.394-10.992,6.33-15.759,6.783a22.984,22.984,0,0,1-13.2-2.448Z" transform="translate(-1489.479 -2.926)"/><g transform="translate(24.186 89.479)"><path class="e" d="M1592.139,97.949,1525.4,136.484l-11.47-2.776v14.315a5.167,5.167,0,0,0,2.339,4.051L1649.62,227.8c6.458,3.729,16.93,3.729,23.389,0l64.181-36.9a5.17,5.17,0,0,0,2.339-4.051V173.881L1714.5,168.6Z" transform="translate(-1513.925 -89.75)"/><path class="f" d="M1592.139,97.949,1525.4,136.484l-11.47-2.776v10.531a5.17,5.17,0,0,0,2.339,4.051l133.356,75.723c6.458,3.729,16.93,3.729,23.389,0l64.181-36.9a5.17,5.17,0,0,0,2.339-4.051v-9.18L1714.5,168.6Z" transform="translate(-1513.925 -89.75)"/><path class="g" d="M1517.316,138.008c-4.522-2.61-4.522-6.842,0-9.453l63.128-36.447c6.459-3.729,16.931-3.729,23.39,0l132.3,76.386c4.521,2.61,4.521,6.841,0,9.453L1681.2,209.667c-4.522,2.61-11.984,6.9-17.182,7.4-5.08.482-10.476-.407-14.394-2.67Z" transform="translate(-1513.925 -89.311)"/><path class="f" d="M1575.473,106.049c.44.51.178,1.279-.585,1.72l-20.641,11.918a1.815,1.815,0,0,1-2.181-.123h0c-.44-.509-.179-1.279.585-1.72l20.641-11.918a1.817,1.817,0,0,1,2.181.123Z" transform="translate(-1515.854 -90.141)"/><path class="h" d="M1527.6,139.214l74.021-43.071,122.142,69.9-74.847,43.213Z" transform="translate(-1514.62 -89.659)"/><path class="i" d="M1529.018,139.253l72.677-42.29,120.785,69.123-73.493,42.431Z" transform="translate(-1514.693 -89.7)"/><path class="j" d="M1605.529,96.964l120.784,69.123-73.492,42.431C1664.822,173.253,1594.839,142.764,1605.529,96.964Z" transform="translate(-1518.526 -89.7)"/></g><g transform="translate(122.782 0)"><path class="k" d="M1762.578-4.961H1630.9a9.315,9.315,0,0,0-9.315,9.316V76.368a9.316,9.316,0,0,0,9.315,9.316h9.579l17.873,45.511,25.054-45.511h79.171a9.317,9.317,0,0,0,9.316-9.316V4.355A9.316,9.316,0,0,0,1762.578-4.961Z" transform="translate(-1616.996 4.961)"/><path class="c" d="M1758.795-4.961H1627.12a9.316,9.316,0,0,0-9.316,9.316V76.368a9.316,9.316,0,0,0,9.316,9.316h9.578l21.463,45.511,21.463-45.511h79.171a9.316,9.316,0,0,0,9.316-9.316V4.355A9.316,9.316,0,0,0,1758.795-4.961Z" transform="translate(-1617.804 4.961)"/></g></g></g></g></svg>