<svg xmlns="http://www.w3.org/2000/svg" xmlns:xlink="http://www.w3.org/1999/xlink" width="51.37" height="51.371" viewBox="0 0 51.37 51.371"><defs><style>.a{fill:url(#a);}.b{fill:#fff;}</style><linearGradient id="a" x1="0.217" y1="0.109" x2="0.838" y2="0.864" gradientUnits="objectBoundingBox"><stop offset="0" stop-color="#b509dd"/><stop offset="1" stop-color="#f7276c"/></linearGradient></defs><g transform="translate(-208 -359)"><g transform="translate(-570 -632)"><g transform="translate(778 991)"><path class="a" d="M-853.879,891.729a25.686,25.686,0,0,1-25.685,25.687,25.686,25.686,0,0,1-25.685-25.687,25.684,25.684,0,0,1,25.685-25.684A25.684,25.684,0,0,1-853.879,891.729Z" transform="translate(905.249 -866.045)"/></g></g><g transform="translate(-1594.299 -317.447)"><rect class="b" width="2.738" height="1.565" transform="translate(1821.92 710.473)"/><rect class="b" width="2.738" height="1.565" transform="translate(1816.546 710.473)"/><rect class="b" width="2.739" height="1.565" transform="translate(1827.294 710.473)"/><path class="b" d="M1811.3,714.8a1.09,1.09,0,0,0,1.117,1.055H1839.5a1.091,1.091,0,0,0,1.119-1.055V704.5H1811.3Zm20.594-4.155h4.559v3.13h-4.559Zm-5.388,0h4.56v3.13h-4.56Zm-5.388,0h4.559v3.13h-4.559Zm-5.387,0h4.558v3.13h-4.558Z" transform="translate(0 -0.958)"/><rect class="b" width="2.738" height="1.565" transform="translate(1832.669 710.473)"/><path class="b" d="M1839.5,697.618h-27.086a1.09,1.09,0,0,0-1.117,1.056v2.418h29.322v-2.418A1.091,1.091,0,0,0,1839.5,697.618Z" transform="translate(0 -0.779)"/><path class="b" d="M1843.356,689.447h-27.019a1.739,1.739,0,0,0-1.785,1.69v4H1839.1a3.047,3.047,0,0,1,3.125,2.956v9.855h1.13a1.74,1.74,0,0,0,1.786-1.689V691.137A1.74,1.74,0,0,0,1843.356,689.447Z" transform="translate(-0.478)"/></g></g></svg>